<svg width="81" height="66" viewBox="0 0 81 66" fill="none" xmlns="http://www.w3.org/2000/svg">
<path d="M64.51 23.7379C64.51 36.848 53.8978 47.4759 40.8071 47.4759C27.7164 47.4759 17.1043 36.848 17.1043 23.7379C17.1043 10.6278 27.7164 0 40.8071 0C53.8978 0 64.51 10.6278 64.51 23.7379ZM19.1952 23.7379C19.1952 35.6916 28.8712 45.3819 40.8071 45.3819C52.7431 45.3819 62.419 35.6916 62.419 23.7379C62.419 11.7843 52.7431 2.094 40.8071 2.094C28.8712 2.094 19.1952 11.7843 19.1952 23.7379Z" fill="#C30000"/>
<path d="M26.686 29.8384L27.1407 19.0333C27.1407 18.0949 26.6446 17.1289 25.6525 16.1353L25.7352 15.6386C25.9281 15.5834 26.1073 15.542 26.2726 15.5144C26.4655 15.4592 26.6722 15.404 26.8927 15.3488C27.1407 15.2936 27.4163 15.2384 27.7194 15.1832C28.0226 15.128 28.3395 15.0728 28.6702 15.0176C29.4418 14.9348 30.1584 14.8934 30.8198 14.8934C31.5087 14.8934 32.0874 15.1694 32.5559 15.7214C33.052 16.2733 33.3 17.1565 33.3 18.3709C33.3 19.5577 33.1071 21.2688 32.7213 23.5044C32.363 25.7123 32.1839 27.3683 32.1839 28.4722C32.1839 29.5486 32.4457 30.0868 32.9693 30.0868C33.8236 30.0868 34.7606 29.5486 35.7803 28.4722C35.8078 28.0306 35.987 26.6231 36.3177 24.2495C36.6484 21.876 36.8137 20.151 36.8137 19.0747C36.8137 17.9983 36.7311 17.0737 36.5657 16.3009C38.6877 15.5006 40.5892 15.1004 42.2703 15.1004C42.6286 15.3488 42.8077 16.1629 42.8077 17.5429C42.8077 18.8953 42.5735 20.7858 42.105 23.2146C41.6365 25.6157 41.4022 27.3683 41.4022 28.4722C41.4022 29.5486 41.6227 30.0868 42.0636 30.0868C43.1108 30.0868 44.2545 29.314 45.4947 27.7685C46.7348 26.1953 47.3962 24.8843 47.4789 23.8356L44.6679 20.6892C44.7781 19.5025 45.0675 18.4261 45.536 17.4601C46.0045 16.4941 46.4454 15.818 46.8588 15.4316L47.4375 14.8934C48.6225 14.8934 49.5182 15.2108 50.1245 15.8455C50.7308 16.4803 51.0339 17.2255 51.0339 18.0811C51.0339 20.2614 50.4965 22.566 49.4217 24.9947C48.347 27.4235 46.9001 29.4934 45.0813 31.2046C43.2624 32.8881 41.416 33.7299 39.542 33.7299C38.605 33.7299 37.8058 33.4677 37.1444 32.9433C36.5106 32.3913 36.0834 31.6876 35.863 30.832C33.9339 32.7639 32.0599 33.7299 30.241 33.7299C29.0285 33.7299 28.1328 33.3573 27.5541 32.6121C26.9753 31.8393 26.686 30.9148 26.686 29.8384Z" fill="#C30000"/>
<path d="M55.1273 33.7299C54.1628 33.7299 53.4187 33.4401 52.8951 32.8605C52.3715 32.2809 52.1097 31.5082 52.1097 30.5422C52.1097 29.5762 52.4679 28.7482 53.1844 28.0582C53.901 27.3407 54.7415 26.9819 55.706 26.9819C56.6982 26.9819 57.456 27.2717 57.9796 27.8512C58.5032 28.4032 58.765 29.1622 58.765 30.1282C58.765 31.0666 58.393 31.9083 57.6489 32.6535C56.9324 33.3711 56.0919 33.7299 55.1273 33.7299Z" fill="#C30000"/>
<path d="M18.1398 51.296L14.2661 65.8016H12.572L9.699 56.0386C9.61314 55.7608 9.53058 55.483 9.45132 55.2052C9.37867 54.9207 9.30932 54.6529 9.24327 54.4015C9.17723 54.1436 9.12109 53.9187 9.07485 53.7268C9.03522 53.5284 9.0055 53.3796 8.98569 53.2804C8.97248 53.3796 8.94606 53.5251 8.90643 53.7169C8.87341 53.9087 8.82718 54.1303 8.76774 54.3817C8.7149 54.633 8.64885 54.9009 8.56959 55.1853C8.49694 55.4698 8.41769 55.7575 8.33183 56.0485L5.53804 65.8016H3.84393L0 51.296H1.75355L4.0817 60.3942C4.16096 60.6985 4.23361 60.9995 4.29966 61.2971C4.37231 61.5881 4.43505 61.8726 4.48789 62.1504C4.54733 62.4282 4.60017 62.6994 4.6464 62.964C4.69264 63.2285 4.73557 63.4865 4.7752 63.7379C4.80822 63.4799 4.85115 63.212 4.90399 62.9342C4.95683 62.6498 5.01296 62.362 5.07241 62.071C5.13845 61.78 5.2078 61.4856 5.28046 61.188C5.35971 60.8903 5.44227 60.5927 5.52813 60.295L8.13368 51.296H9.86742L12.5819 60.3645C12.6744 60.6753 12.7603 60.9829 12.8395 61.2872C12.9188 61.5915 12.9881 61.8891 13.0476 62.1801C13.1136 62.4646 13.1698 62.7391 13.216 63.0036C13.2688 63.2616 13.3151 63.5063 13.3547 63.7379C13.4009 63.4137 13.4571 63.0731 13.5231 62.7159C13.5892 62.3587 13.6651 61.985 13.751 61.5948C13.8434 61.2045 13.9425 60.801 14.0482 60.3843L16.3763 51.296H18.1398Z" fill="#C30000"/>
<path d="M24.3614 54.7289C25.2861 54.7289 26.0786 54.934 26.7391 55.3441C27.3996 55.7542 27.9048 56.3296 28.2549 57.0705C28.6049 57.8047 28.78 58.6645 28.78 59.6501V60.672H21.2803C21.3001 61.9486 21.6172 62.921 22.2314 63.589C22.8456 64.2571 23.7109 64.5911 24.8271 64.5911C25.5139 64.5911 26.1216 64.5283 26.65 64.4026C27.1783 64.2769 27.7265 64.0917 28.2945 63.847V65.2956C27.7463 65.5403 27.2014 65.7189 26.6599 65.8313C26.1249 65.9438 25.4908 66 24.7577 66C23.7142 66 22.8027 65.7883 22.0234 65.365C21.2506 64.9351 20.6496 64.3067 20.2203 63.4799C19.791 62.6531 19.5763 61.6411 19.5763 60.4438C19.5763 59.2731 19.7712 58.2611 20.1608 57.4078C20.5571 56.5479 21.1119 55.8865 21.8252 55.4235C22.5451 54.9604 23.3905 54.7289 24.3614 54.7289ZM24.3416 56.0783C23.4632 56.0783 22.7631 56.366 22.2413 56.9415C21.7195 57.5169 21.4091 58.3206 21.3101 59.3525H27.0561C27.0495 58.7042 26.9472 58.1354 26.749 57.6459C26.5575 57.1498 26.2636 56.7662 25.8673 56.495C25.471 56.2172 24.9625 56.0783 24.3416 56.0783Z" fill="#C30000"/>
<path d="M43.1452 65.8016H41.2034L33.3075 53.6177H33.2282C33.248 53.9418 33.2712 54.3122 33.2976 54.7289C33.324 55.139 33.3438 55.5789 33.357 56.0485C33.3768 56.5115 33.3867 56.9845 33.3867 57.4673V65.8016H31.8214V51.296H33.7533L41.6195 63.4402H41.6888C41.6756 63.2087 41.6591 62.8813 41.6393 62.4579C41.6195 62.028 41.5997 61.5683 41.5799 61.0788C41.5667 60.5827 41.5601 60.123 41.5601 59.6997V51.296H43.1452V65.8016Z" fill="#C30000"/>
<path d="M51.0312 54.7289C51.9558 54.7289 52.7484 54.934 53.4089 55.3441C54.0694 55.7542 54.5746 56.3296 54.9247 57.0705C55.2747 57.8047 55.4497 58.6645 55.4497 59.6501V60.672H47.9501C47.9699 61.9486 48.2869 62.921 48.9012 63.589C49.5154 64.2571 50.3806 64.5911 51.4968 64.5911C52.1837 64.5911 52.7913 64.5283 53.3197 64.4026C53.8481 64.2769 54.3963 64.0917 54.9643 63.847V65.2956C54.4161 65.5403 53.8712 65.7189 53.3296 65.8313C52.7946 65.9438 52.1606 66 51.4275 66C50.3839 66 49.4725 65.7883 48.6931 65.365C47.9204 64.9351 47.3194 64.3067 46.89 63.4799C46.4607 62.6531 46.2461 61.6411 46.2461 60.4438C46.2461 59.2731 46.4409 58.2611 46.8306 57.4078C47.2269 56.5479 47.7817 55.8865 48.495 55.4235C49.2149 54.9604 50.0603 54.7289 51.0312 54.7289ZM51.0114 56.0783C50.133 56.0783 49.4329 56.366 48.9111 56.9415C48.3893 57.5169 48.0789 58.3206 47.9798 59.3525H53.7259C53.7193 58.7042 53.6169 58.1354 53.4188 57.6459C53.2273 57.1498 52.9333 56.7662 52.5371 56.495C52.1408 56.2172 51.6322 56.0783 51.0114 56.0783Z" fill="#C30000"/>
<path d="M67.0806 65.7817L65.1487 59.4517C65.0629 59.1805 64.9803 58.9159 64.9011 58.6579C64.8284 58.3934 64.7591 58.142 64.693 57.9039C64.6336 57.6591 64.5774 57.4343 64.5246 57.2292C64.4784 57.0175 64.4387 56.8356 64.4057 56.6835H64.3363C64.3099 56.8356 64.2736 57.0175 64.2274 57.2292C64.1811 57.4343 64.125 57.6591 64.059 57.9039C63.9995 58.1486 63.9335 58.4066 63.8608 58.6778C63.7882 58.9424 63.7056 59.2102 63.6131 59.4814L61.5921 65.7817H59.7395L56.7476 54.9075H58.4516L60.0169 60.9102C60.1226 61.307 60.2216 61.7006 60.3141 62.0908C60.4132 62.4745 60.4957 62.8383 60.5618 63.1822C60.6344 63.5196 60.6873 63.8139 60.7203 64.0653H60.7995C60.8392 63.8999 60.8821 63.7015 60.9283 63.47C60.9812 63.2385 61.0373 62.9937 61.0967 62.7358C61.1628 62.4712 61.2321 62.2099 61.3048 61.9519C61.3774 61.6874 61.4501 61.4393 61.5228 61.2078L63.524 54.9075H65.2973L67.2292 61.1979C67.3283 61.5154 67.424 61.8461 67.5165 62.1901C67.6156 62.534 67.7048 62.868 67.784 63.1922C67.8633 63.5097 67.9194 63.7941 67.9524 64.0454H68.0317C68.0581 63.8205 68.1076 63.5427 68.1803 63.212C68.2529 62.8813 68.3355 62.5175 68.428 62.1206C68.527 61.7237 68.6294 61.3203 68.7351 60.9102L70.3202 54.9075H71.9945L68.9927 65.7817H67.0806Z" fill="#C30000"/>
<path d="M81 62.8251C81 63.5196 80.825 64.1049 80.4749 64.5812C80.1315 65.0508 79.6361 65.4047 78.9889 65.6428C78.3482 65.8809 77.5821 66 76.6904 66C75.9309 66 75.2737 65.9405 74.7189 65.8214C74.1641 65.7023 73.6787 65.5337 73.2626 65.3154V63.7974C73.7051 64.0157 74.2335 64.2141 74.8477 64.3927C75.462 64.5713 76.0894 64.6606 76.7301 64.6606C77.6679 64.6606 78.3482 64.5084 78.7709 64.2042C79.1936 63.8999 79.405 63.4865 79.405 62.964C79.405 62.6663 79.3191 62.405 79.1474 62.1801C78.9823 61.9486 78.7016 61.727 78.3053 61.5154C77.909 61.2971 77.3608 61.059 76.6607 60.801C75.9672 60.5364 75.3662 60.2752 74.8576 60.0172C74.3557 59.7526 73.966 59.4318 73.6886 59.0548C73.4178 58.6778 73.2824 58.1883 73.2824 57.5864C73.2824 56.667 73.6523 55.9625 74.392 55.4731C75.1383 54.977 76.1158 54.7289 77.3245 54.7289C77.9784 54.7289 78.5893 54.7951 79.1573 54.9274C79.7319 55.053 80.2669 55.225 80.7622 55.4433L80.2074 56.7629C79.7583 56.5711 79.2795 56.409 78.7709 56.2767C78.2624 56.1444 77.7439 56.0783 77.2155 56.0783C76.456 56.0783 75.8715 56.204 75.462 56.4553C75.0591 56.7067 74.8576 57.0506 74.8576 57.4872C74.8576 57.8245 74.9501 58.1023 75.135 58.3206C75.3266 58.5389 75.6304 58.7439 76.0465 58.9357C76.4626 59.1276 77.0108 59.3525 77.691 59.6104C78.3713 59.8618 78.9592 60.123 79.4545 60.3942C79.9499 60.6588 80.3296 60.9829 80.5938 61.3666C80.8646 61.7436 81 62.2297 81 62.8251Z" fill="#C30000"/>
</svg>
